HIERARCHY
ROOT Hips
{
	OFFSET 0.000000 0.000000 0.000000
	CHANNELS 6 Xposition Yposition Zposition Zrotation Yrotation Xrotation 
	JOINT LHipJoint
	{
		OFFSET 0.000000 0.000000 0.000000
		CHANNELS 3 Zrotation Yrotation Xrotation
		JOINT LeftUpLeg
		{
			OFFSET 1.363060 -1.794630 0.839290
			CHANNELS 3 Zrotation Yrotation Xrotation
			JOINT LeftLeg
			{
				OFFSET 2.448110 -6.726130 0.000000
				CHANNELS 3 Zrotation Yrotation Xrotation
				JOINT LeftFoot
				{
					OFFSET 2.562200 -7.039590 0.000000
					CHANNELS 3 Zrotation Yrotation Xrotation
					JOINT LeftToeBase
					{
						OFFSET 0.157640 -0.433110 2.322550
						CHANNELS 3 Zrotation Yrotation Xrotation
						End Site
						{
							OFFSET 0.000000 0.000000 0.000000
						}
					}
				}
			}
		}
	}
	JOINT RHipJoint
	{
		OFFSET 0.000000 0.000000 0.000000
		CHANNELS 3 Zrotation Yrotation Xrotation
		JOINT RightUpLeg
		{
			OFFSET -1.305520 -1.794630 0.839290
			CHANNELS 3 Zrotation Yrotation Xrotation
			JOINT RightLeg
			{
				OFFSET -2.542530 -6.985550 0.000000
				CHANNELS 3 Zrotation Yrotation Xrotation
				JOINT RightFoot
				{
					OFFSET -2.568260 -7.056230 0.000000
					CHANNELS 3 Zrotation Yrotation Xrotation
					JOINT RightToeBase
					{
						OFFSET -0.164730 -0.452590 2.363150
						CHANNELS 3 Zrotation Yrotation Xrotation
						End Site
						{
							OFFSET 0.000000 0.000000 0.000000
						}
					}
				}
			}
		}
	}
	JOINT LowerBack
	{
		OFFSET 0.000000 0.000000 0.000000
		CHANNELS 3 Zrotation Yrotation Xrotation
		JOINT Spine
		{
			OFFSET 0.028270 2.035590 -0.193380
			CHANNELS 3 Zrotation Yrotation Xrotation
			JOINT Spine1
			{
				OFFSET 0.056720 2.048850 -0.042750
				CHANNELS 3 Zrotation Yrotation Xrotation
				JOINT Neck
				{
					OFFSET 0.000000 0.000000 0.000000
					CHANNELS 3 Zrotation Yrotation Xrotation
					JOINT Neck1
					{
						OFFSET -0.054170 1.746240 0.172020
						CHANNELS 3 Zrotation Yrotation Xrotation
						JOINT Head
						{
							OFFSET 0.104070 1.761360 -0.123970
							CHANNELS 3 Zrotation Yrotation Xrotation
							End Site
							{
								OFFSET 0.000000 0.000000 0.000000
							}
						}
					}
				}
				JOINT LeftShoulder
				{
					OFFSET 0.000000 0.000000 0.000000
					CHANNELS 3 Zrotation Yrotation Xrotation
					JOINT LeftArm
					{
						OFFSET 3.362410 1.200890 -0.311210
						CHANNELS 3 Zrotation Yrotation Xrotation
						JOINT LeftForeArm
						{
							OFFSET 4.983000 -0.000000 -0.000000
							CHANNELS 3 Zrotation Yrotation Xrotation
							JOINT LeftHand
							{
								OFFSET 3.483560 -0.000000 -0.000000
								CHANNELS 3 Zrotation Yrotation Xrotation
								JOINT LeftFingerBase
								{
									OFFSET 0.000000 0.000000 0.000000
									CHANNELS 3 Zrotation Yrotation Xrotation
									JOINT LeftHandIndex1
									{
										OFFSET 0.715260 -0.000000 -0.000000
										CHANNELS 3 Zrotation Yrotation Xrotation
										End Site
										{
											OFFSET 0.000000 0.000000 0.000000
										}
									}
								}
								JOINT LThumb
								{
									OFFSET 0.000000 0.000000 0.000000
									CHANNELS 3 Zrotation Yrotation Xrotation
									End Site
									{
										OFFSET 0.000000 0.000000 0.000000
									}
								}
							}
						}
					}
				}
				JOINT RightShoulder
				{
					OFFSET 0.000000 0.000000 0.000000
					CHANNELS 3 Zrotation Yrotation Xrotation
					JOINT RightArm
					{
						OFFSET -3.136600 1.374050 -0.404650
						CHANNELS 3 Zrotation Yrotation Xrotation
						JOINT RightForeArm
						{
							OFFSET -5.241900 -0.000000 -0.000000
							CHANNELS 3 Zrotation Yrotation Xrotation
							JOINT RightHand
							{
								OFFSET -3.444170 -0.000000 -0.000000
								CHANNELS 3 Zrotation Yrotation Xrotation
								JOINT RightFingerBase
								{
									OFFSET 0.000000 0.000000 0.000000
									CHANNELS 3 Zrotation Yrotation Xrotation
									JOINT RightHandIndex1
									{
										OFFSET -0.622530 -0.000000 -0.000000
										CHANNELS 3 Zrotation Yrotation Xrotation
										End Site
										{
											OFFSET 0.000000 0.000000 0.000000
										}
									}
								}
								JOINT RThumb
								{
									OFFSET 0.000000 0.000000 0.000000
									CHANNELS 3 Zrotation Yrotation Xrotation
									End Site
									{
										OFFSET 0.000000 0.000000 0.000000
									}
								}
							}
						}
					}
				}
			}
		}
	}
}
MOTION
Frames: 8
Frame Time: 0.008333
-1.598495 16.695500 -1.248788 175.483234 79.480045 -179.680921 -8.946909 2.313133 0.879759 -25.078118 15.146861 -35.805704 -2.977308 0.431725 24.761367 3.103533 14.494581 -14.374187 178.422300 -0.000000 -6.186900 11.497241 -4.108046 -0.954912 -2.993202 -19.615006 -8.771464 -0.203648 -3.238120 49.511802 0.106373 12.942709 15.714955 4.953100 -0.000000 -86.699800 -7.676634 1.402596 -1.979471 -2.236232 1.793724 -3.601793 -5.361624 1.673128 -0.387984 6.691737 -2.724928 -8.450630 -2.356708 -0.177755 -0.220240 0.000000 0.000000 0.000000 -7.457331 20.188861 2.506996 -64.023721 22.541503 -10.939078 -4.511720 -4.423039 -0.003133 4.167282 3.999543 0.151267 -0.103533 -0.062832 -0.000000 0.000000 0.000000 0.000000 0.000000 0.000000 0.000000 6.504520 4.718169 -0.450151 33.026094 32.318773 -6.802599 0.009395 67.083644 -0.031065 -2.464349 7.946923 -0.176710 -0.072132 -0.508956 -0.000000 0.000000 0.000000 0.000000 0.000000 0.000000 0.000000 
-1.488787 16.649267 -1.289038 173.746521 79.291999 178.634935 -8.900541 2.375995 0.834253 -25.387721 14.729816 -36.177965 -2.925916 0.623806 26.655104 3.153112 14.604261 -14.971286 178.233500 -0.000000 -6.886299 11.650569 -3.906174 -0.921248 -3.472546 -19.072560 -10.444911 -0.492389 -3.377701 52.879308 -0.074913 12.627090 17.521317 5.311600 0.000000 -84.723600 -8.040080 1.275160 -1.911516 -2.335887 1.689669 -3.619557 -5.496418 1.569584 -0.493084 6.927910 -2.434167 -8.418004 -2.486162 -0.187568 -0.221546 0.000000 0.000000 0.000000 -7.592244 19.738307 2.592073 -64.343336 21.226036 -9.751286 -4.483310 -5.265552 -0.004071 3.489306 4.238234 0.134371 -0.096951 -0.058495 -0.000000 0.000000 0.000000 0.000000 0.000000 0.000000 0.000000 7.142091 5.096224 -0.372656 34.886297 31.733042 -6.883120 0.055446 66.845373 -0.031788 -2.657525 8.037254 -0.193417 -0.065886 -0.508425 -0.000000 0.000000 0.000000 0.000000 0.000000 0.000000 0.000000 
-1.385706 16.601033 -1.328222 172.205061 79.036024 177.132908 -8.860415 2.417790 0.768312 -25.651315 14.256827 -36.459725 -2.868990 0.808115 28.516402 3.208758 14.723268 -15.678154 178.007300 0.000000 -7.461000 11.790687 -3.684275 -0.915295 -3.877087 -18.461892 -12.084033 -0.762944 -3.520205 56.212410 -0.257379 11.971998 18.989939 5.434500 0.000000 -81.990800 -8.364229 1.145922 -1.768229 -2.425415 1.583099 -3.626878 -5.627454 1.463898 -0.621217 7.125066 -2.126741 -8.376101 -2.619972 -0.197592 -0.222120 0.000000 0.000000 0.000000 -7.777410 19.199952 2.684197 -64.575755 19.782444 -8.443435 -4.445173 -6.049497 -0.004634 2.926097 4.388968 0.116783 -0.090287 -0.053217 -0.000000 0.000000 0.000000 0.000000 0.000000 0.000000 0.000000 7.752296 5.481163 -0.287591 36.752578 31.059115 -7.039523 0.098121 66.574258 -0.033064 -2.922063 8.181778 -0.217326 -0.058760 -0.508303 -0.000000 0.000000 0.000000 0.000000 0.000000 0.000000 0.000000 
-1.288820 16.552129 -1.366628 170.860270 78.713787 175.806379 -8.826515 2.440646 0.680621 -25.875162 13.749816 -36.614383 -2.809748 0.979029 30.284371 3.270350 14.861031 -16.470197 177.748700 0.000000 -7.889600 11.919727 -3.447982 -0.939017 -4.224123 -17.805909 -13.672960 -1.019468 -3.670074 59.479585 -0.436660 10.955574 20.042915 5.282500 0.000001 -78.794099 -8.651126 1.019233 -1.548092 -2.505697 1.478095 -3.621485 -5.755521 1.360235 -0.764062 7.290220 -1.826078 -8.328024 -2.757713 -0.207717 -0.222934 0.000000 0.000000 0.000000 -7.996558 18.589800 2.779677 -64.718306 18.179592 -7.006657 -4.397328 -6.740739 -0.004807 2.508300 4.439359 0.101302 -0.083494 -0.046989 -0.000000 0.000000 0.000000 0.000000 0.000000 0.000000 0.000000 8.350720 5.843201 -0.197006 38.600738 30.326831 -7.243208 0.136204 66.243557 -0.035155 -3.295536 8.396136 -0.252441 -0.050355 -0.508547 -0.000000 0.000000 0.000000 0.000000 0.000000 0.000000 0.000000 
-1.197465 16.504045 -1.404697 169.714659 78.326918 174.654462 -8.798762 2.446832 0.571894 -26.067193 13.229459 -36.621305 -2.751576 1.132050 31.909309 3.337492 15.021920 -17.323970 177.463000 -0.000000 -8.200600 12.038699 -3.203330 -0.989867 -4.523451 -17.118026 -15.203129 -1.267213 -3.829323 62.646135 -0.611378 9.574789 20.632432 4.848200 0.000000 -75.433701 -8.898887 0.900204 -1.257984 -2.576460 1.379157 -3.604593 -5.879796 1.262748 -0.920497 7.420993 -1.527461 -8.267322 -2.897074 -0.217820 -0.222087 0.000000 0.000000 0.000000 -8.236850 17.907387 2.877229 -64.774486 16.418610 -5.451848 -4.341428 -7.327346 -0.004642 2.257000 4.389626 0.090029 -0.076583 -0.039795 -0.000000 0.000000 0.000000 0.000000 0.000000 0.000000 0.000000 8.924926 6.181042 -0.104345 40.447240 29.516678 -7.485521 0.169417 65.838458 -0.038108 -3.787761 8.690144 -0.301160 -0.040708 -0.508949 -0.000000 0.000000 0.000000 0.000000 0.000000 0.000000 0.000000 
-1.110716 16.458338 -1.442784 168.747343 77.878480 173.658449 -8.776078 2.439937 0.445162 -26.239597 12.710466 -36.469908 -2.697608 1.263985 33.347917 3.409594 15.209271 -18.208218 177.158000 0.000000 -8.403900 12.148450 -2.954501 -1.062070 -4.785593 -16.405323 -16.672356 -1.510580 -3.997083 65.674932 -0.782296 7.855592 20.741918 4.160900 0.000000 -72.146200 -9.112823 0.791737 -0.910402 -2.639510 1.288975 -3.575245 -6.001725 1.174150 -1.076766 7.529099 -1.268059 -8.202431 -3.037000 -0.227713 -0.221730 0.000000 0.000000 0.000000 -8.483687 17.175676 2.970429 -64.749301 14.481595 -3.801710 -4.279039 -7.804321 -0.004231 2.186486 4.253940 0.084262 -0.069576 -0.031662 -0.000000 0.000000 0.000000 0.000000 0.000000 0.000000 0.000000 9.497398 6.450560 -0.010432 42.266022 28.680736 -7.717651 0.197690 65.309656 -0.042099 -4.436843 9.067514 -0.368989 -0.029351 -0.509108 -0.000000 0.000000 0.000000 0.000000 0.000000 0.000000 0.000000 
-1.027606 16.416421 -1.481418 167.964403 77.370840 172.829763 -8.758692 2.422111 0.304676 -26.398486 12.206884 -36.167792 -2.649985 1.373160 34.577095 3.484430 15.414763 -19.095804 176.842100 0.000000 -8.540400 12.247893 -2.706936 -1.146832 -5.010312 -15.667988 -18.082976 -1.751382 -4.170604 68.528875 -0.951077 5.849880 20.379443 3.278900 -0.000000 -69.052200 -9.287611 0.697243 -0.524049 -2.693517 1.210229 -3.537344 -6.119447 1.096514 -1.233452 7.606559 -1.023319 -8.124024 -3.173401 -0.237195 -0.218820 0.000000 0.000000 0.000000 -8.728798 16.399924 3.059255 -64.653651 12.383986 -2.089109 -4.213015 -8.181272 -0.003718 2.297936 4.050724 0.083801 -0.062599 -0.022568 -0.000000 0.000000 0.000000 0.000000 0.000000 0.000000 0.000000 10.035455 6.671900 0.079489 44.098020 27.768795 -7.950357 0.221257 64.643179 -0.046897 -5.223622 9.520611 -0.456730 -0.016820 -0.508472 -0.000000 0.000000 0.000000 0.000000 0.000000 0.000000 0.000000 
-0.947113 16.379574 -1.521014 167.353454 76.807165 172.164242 -8.746026 2.396186 0.155617 -26.550889 11.727153 -35.728017 -2.610324 1.459039 35.580837 3.559016 15.626653 -19.955516 176.526599 -0.000000 -8.631600 12.336121 -2.464168 -1.234748 -5.200536 -14.904386 -19.438947 -1.988593 -4.345431 71.170131 -1.119131 3.638084 19.577480 2.283899 -0.000000 -66.169601 -9.423801 0.617220 -0.118370 -2.738758 1.143206 -3.491598 -6.233110 1.030049 -1.378322 7.659076 -0.810673 -8.039009 -3.303575 -0.246001 -0.214781 0.000000 0.000000 0.000000 -8.964392 15.612530 3.138500 -64.498005 10.115026 -0.348435 -4.145884 -8.470695 -0.003254 2.582579 3.804542 0.087843 -0.055831 -0.012544 -0.000000 0.000000 0.000000 0.000000 0.000000 0.000000 0.000000 10.541335 6.823259 0.163159 45.938178 26.806656 -8.158125 0.240400 63.791758 -0.052368 -6.153089 10.032367 -0.567386 -0.003209 -0.506327 -0.000000 0.000000 0.000000 0.000000 0.000000 0.000000 0.000000 
